<svg xmlns="http://www.w3.org/2000/svg" height="20" viewBox="0 -960 960 960" width="20"><path d="M709.23-164.001H272.462v-439.998l273.384-271.845 15.845 5.845q16.23 11.231 24.846 28 8.615 16.769 4.615 34.846l-1 1.154-36.461 202h274q26.539 0 45.423 18.885 18.885 18.884 18.885 45.423v41.614q0 7.231-1.116 12.961-1.115 5.731-4.115 11.962L773.083-205.495q-8.546 19.032-25.776 30.263-17.231 11.231-38.077 11.231ZM324.461-216H709.23q4.231 0 8.654-2.308 4.424-2.308 6.732-7.693L840-495v-44.691q0-5.385-3.462-8.847-3.462-3.462-8.847-3.462H491.846L537-794.231l-212.539 211.77V-216Zm0-366.461V-216v-366.461Zm-51.999-21.538V-552H120v336h152.462v51.999H68.002v-439.998h204.46Z"/></svg>