<svg xmlns="http://www.w3.org/2000/svg" height="40" viewBox="0 -960 960 960" width="40"><path d="M252.847-412.372h454.306v-47.884H252.847v47.884Zm0-123.924h454.306v-47.883H252.847v47.883Zm0-123.923h454.306v-47.883H252.847v47.883Zm602.408 534.64L716.564-264.27H164.851q-24.52 0-42.313-17.794-17.793-17.793-17.793-42.322v-471.228q0-24.529 17.793-42.322 17.793-17.794 42.314-17.794h630.296q24.521 0 42.314 17.794 17.793 17.793 17.793 42.375v669.982ZM152.628-312.154v-495.692 495.692Zm584.756 0 69.988 73.257v-556.641q0-4.615-3.846-8.462-3.847-3.846-8.463-3.846H164.937q-4.616 0-8.463 3.846-3.846 3.847-3.846 8.462v471.076q0 4.615 3.846 8.462 3.847 3.846 8.463 3.846h572.447Z"/></svg>